<svg width="11" height="19" viewBox="0 0 11 19" fill="none" xmlns="http://www.w3.org/2000/svg">
<g clip-path="url(#clip0_1_25)">
<path d="M9.65991 15.8268C9.8946 16.084 10.025 16.4223 10.0119 16.7742C10.0119 17.1261 9.88156 17.4509 9.63384 17.708C9.39916 17.9516 9.07321 18.1005 8.73423 18.1005C8.39525 18.1005 8.0693 17.9787 7.82158 17.7351L0.442183 10.0749C0.324843 9.95313 0.233578 9.80425 0.168389 9.64185C0.1032 9.47944 0.0640869 9.3035 0.0640869 9.12756C0.0640869 8.95162 0.1032 8.77568 0.168389 8.59974C0.233578 8.43734 0.324843 8.28846 0.442183 8.16666L7.82158 0.506509C7.93892 0.384705 8.08234 0.276434 8.23879 0.208765C8.40829 0.141096 8.57778 0.100494 8.74727 0.100494C8.91676 0.100494 9.09929 0.127562 9.25574 0.195231C9.4122 0.2629 9.55561 0.371171 9.68599 0.492976C9.80333 0.61478 9.8946 0.777186 9.95978 0.939592C10.038 1.102 10.0641 1.27794 10.0641 1.46741C10.0641 1.64335 10.025 1.81929 9.95978 1.9817C9.8946 2.1441 9.79029 2.29298 9.65991 2.42831L3.2062 9.12756L4.43175 10.3862L9.65991 15.8268Z" fill="#181725"/>
</g>
<defs>
<clipPath id="clip0_1_25">
<rect width="10" height="18" fill="white" transform="translate(0.0640869 0.100494)"/>
</clipPath>
</defs>
</svg>
