<svg width="25" height="25" viewBox="0 0 25 25" fill="none" xmlns="http://www.w3.org/2000/svg">
<path d="M4.74709 11.1168L12.5712 18.9409L20.3953 11.1168C21.087 10.425 21.4757 9.4868 21.4757 8.50852C21.4757 7.53024 21.087 6.59203 20.3953 5.90028C20.0528 5.55776 19.6461 5.28606 19.1986 5.10069C18.7511 4.91532 18.2714 4.81991 17.787 4.81991C16.8088 4.81991 15.8706 5.20853 15.1788 5.90028L12.5712 8.50791L9.96356 5.90151C9.27005 5.21904 8.33496 4.83826 7.36198 4.84211C6.38899 4.84596 5.45694 5.23412 4.76885 5.92205C4.08076 6.60998 3.69237 7.54194 3.6883 8.51492C3.68422 9.48791 4.06478 10.4231 4.74709 11.1168ZM11.702 4.16064L12.5712 5.02984L13.4404 4.16064C14.0103 3.58572 14.6881 3.12903 15.435 2.81678C16.1819 2.50454 16.9831 2.34289 17.7926 2.34111C18.6021 2.33934 19.404 2.49748 20.1523 2.80645C20.9005 3.11542 21.5804 3.56914 22.1528 4.14156C22.7252 4.71398 23.1789 5.39382 23.4879 6.14206C23.7969 6.8903 23.955 7.6922 23.9532 8.50171C23.9515 9.31123 23.7898 10.1124 23.4776 10.8593C23.1653 11.6062 22.7086 12.284 22.1337 12.8539L13.4416 21.5472C13.3274 21.6616 13.1918 21.7522 13.0426 21.8141C12.8933 21.876 12.7334 21.9078 12.5718 21.9078C12.4102 21.9078 12.2503 21.876 12.101 21.8141C11.9517 21.7522 11.8162 21.6616 11.702 21.5472L3.00867 12.8552C2.42593 12.2871 1.96179 11.609 1.64318 10.8601C1.32456 10.1113 1.15781 9.30662 1.15259 8.49283C1.14738 7.67903 1.30381 6.8723 1.6128 6.11943C1.9218 5.36656 2.37721 4.68255 2.95262 4.10705C3.52803 3.53156 4.21198 3.07605 4.96481 2.76695C5.71763 2.45785 6.52434 2.30131 7.33814 2.30641C8.15193 2.31151 8.95662 2.47814 9.70551 2.79665C10.4544 3.11517 11.1326 3.57921 11.7007 4.16187L11.702 4.16064Z" fill="#7C7C7C"/>
</svg>
