<svg width="10" height="15" viewBox="0 0 10 15" fill="none" xmlns="http://www.w3.org/2000/svg">
<path d="M0.919281 2.19922L0.919257 2.19924L0.921114 2.20103L5.31277 6.43261L5.31325 6.43306L6.26691 7.33993L0.921205 12.478C0.804785 12.5899 0.708176 12.7162 0.646861 12.8577C0.587573 12.9944 0.550997 13.1448 0.550997 13.2974C0.550997 13.4534 0.57398 13.6066 0.648244 13.7509C0.706301 13.884 0.789125 14.0215 0.899301 14.1274L0.899205 14.1275L0.903175 14.131C1.01737 14.2297 1.14736 14.3215 1.29283 14.3797C1.43942 14.4385 1.6062 14.4606 1.75712 14.4606C1.91431 14.4606 2.06863 14.4257 2.21892 14.3702L2.21893 14.3702L2.22142 14.3692C2.36688 14.311 2.49794 14.2188 2.604 14.1169L8.80269 8.15901C8.91192 8.05402 8.99575 7.92682 9.05513 7.78984L9.05517 7.78986L9.05622 7.78722C9.11429 7.64211 9.15099 7.49244 9.15099 7.33954C9.15099 7.1869 9.11442 7.03653 9.05513 6.89977C8.99575 6.7628 8.91192 6.63559 8.80269 6.5306L2.60399 0.57271L2.60402 0.572683L2.60203 0.570866C2.37347 0.36275 2.07479 0.260595 1.76807 0.260595C1.45672 0.260595 1.1583 0.38693 0.943106 0.593762C0.716835 0.811245 0.595338 1.0888 0.594805 1.39018C0.583271 1.69304 0.704858 1.98167 0.919281 2.19922Z" fill="#181725" stroke="#181725" stroke-width="0.2"/>
</svg>
