<svg width="19" height="20" viewBox="0 0 19 20" fill="none" xmlns="http://www.w3.org/2000/svg">
<path d="M8.00636 14.7751C8.79429 14.7751 9.57451 14.618 10.3025 14.3127C11.0304 14.0075 11.6919 13.5601 12.249 12.9961C12.8062 12.4322 13.2481 11.7626 13.5496 11.0257C13.8512 10.2888 14.0064 9.49902 14.0064 8.70142C14.0064 7.90381 13.8512 7.11402 13.5496 6.37713C13.2481 5.64024 12.8062 4.97068 12.249 4.40669C11.6919 3.8427 11.0304 3.39531 10.3025 3.09008C9.57451 2.78485 8.79429 2.62775 8.00636 2.62775C6.41506 2.62775 4.88894 3.26766 3.76372 4.40669C2.6385 5.54572 2.00636 7.09058 2.00636 8.70142C2.00636 10.3123 2.6385 11.8571 3.76372 12.9961C4.88894 14.1352 6.41506 14.7751 8.00636 14.7751ZM14.3264 13.6676L17.9064 17.2916C18.0018 17.385 18.0779 17.4968 18.1302 17.6203C18.1825 17.7439 18.21 17.8767 18.2111 18.0111C18.2122 18.1455 18.1868 18.2788 18.1364 18.4032C18.086 18.5276 18.0117 18.6405 17.9177 18.7355C17.8238 18.8305 17.7121 18.9056 17.5891 18.9564C17.4662 19.0072 17.3345 19.0327 17.2017 19.0314C17.069 19.0302 16.9378 19.0022 16.8158 18.949C16.6938 18.8959 16.5835 18.8187 16.4914 18.7219L12.9114 15.098C11.3038 16.3612 9.28116 16.9567 7.25512 16.7634C5.22908 16.5701 3.35197 15.6024 2.00591 14.0574C0.659859 12.5124 -0.0539527 10.5062 0.00978839 8.44726C0.0735295 6.38826 0.910032 4.43125 2.34901 2.97461C3.78799 1.51796 5.72126 0.671193 7.75529 0.606669C9.78931 0.542145 11.7712 1.26472 13.2974 2.6273C14.8237 3.98988 15.7796 5.89003 15.9706 7.94095C16.1615 9.99186 15.5732 12.0394 14.3254 13.6666L14.3264 13.6676Z" fill="#181B19"/>
</svg>
